<svg viewBox="0 0 599 743"
  xmlns="http://www.w3.org/2000/svg" preserveAspectRatio="xMidYMin">
  <defs>
    <radialGradient cx="46.94%" cy="-12.659%" fx="46.94%" fy="-12.659%" r="193.897%" gradientTransform="matrix(.01395 .9997 -.57379 .0243 .39 -.593)" id="a">
      <stop stop-color="#FFF" offset="0%"/>
      <stop stop-color="#040404" offset="100%"/>
      <stop offset="100%"/>
    </radialGradient>
    <radialGradient cx="46.94%" cy="-12.659%" fx="46.94%" fy="-12.659%" r="193.907%" gradientTransform="scale(.5284 1) rotate(88.487 .679 .088)" id="b">
      <stop stop-color="#FFF" offset="0%"/>
      <stop stop-color="#040404" offset="100%"/>
      <stop offset="100%"/>
    </radialGradient>
    <radialGradient cx="46.94%" cy="-12.659%" fx="46.94%" fy="-12.659%" r="193.905%" gradientTransform="scale(.53509 1) rotate(88.506 .673 .083)" id="c">
      <stop stop-color="#FFF" offset="0%"/>
      <stop stop-color="#040404" offset="100%"/>
      <stop offset="100%"/>
    </radialGradient>
    <radialGradient cx="46.94%" cy="-12.659%" fx="46.94%" fy="-12.659%" r="193.905%" gradientTransform="scale(.53613 1) rotate(88.509 .672 .082)" id="d">
      <stop stop-color="#FFF" offset="0%"/>
      <stop stop-color="#040404" offset="100%"/>
      <stop offset="100%"/>
    </radialGradient>
    <radialGradient cx="0%" cy="38.298%" fx="0%" fy="38.298%" r="220.947%" gradientTransform="scale(1 .5116) rotate(22.699 -.91 .566)" id="e">
      <stop stop-color="#FFF" offset="0%"/>
      <stop offset="100%"/>
    </radialGradient>
    <radialGradient cx="-25.065%" cy="40.864%" fx="-25.065%" fy="40.864%" r="136.732%" gradientTransform="scale(1 .40914) rotate(62.023 -.741 .704)" id="f">
      <stop offset="0%"/>
      <stop stop-color="#D8D8D8" offset="100%"/>
    </radialGradient>
    <radialGradient cx="28.946%" cy="27.388%" fx="28.946%" fy="27.388%" r="140.183%" gradientTransform="matrix(.71613 .52772 -.69797 .54145 .273 -.027)" id="g">
      <stop stop-color="#FFF" offset="0%"/>
      <stop offset="100%"/>
    </radialGradient>
    <radialGradient cx="12.408%" cy="81.266%" fx="12.408%" fy="81.266%" r="111.166%" gradientTransform="scale(.63919 1) rotate(-12.59 .16 .495)" id="h">
      <stop stop-color="#FFF" offset="0%"/>
      <stop offset="100%"/>
    </radialGradient>
    <radialGradient cx="21.959%" cy="50%" fx="21.959%" fy="50%" r="100%" id="i">
      <stop stop-color="#FFF" offset="0%"/>
      <stop offset="100%"/>
    </radialGradient>
  </defs>
  <g transform="translate(5 -17)" fill-rule="nonzero" fill="none">
    <g stroke="#979797" stroke-width="10">
      <path d="M108.163 28.917C76.393 66.847 55.605 99.153.46 119.13c-5.966 28.32 46.212 68.553 156.252 127.165 82.187 29.971 258.364 71.29 315.596 45.695-38.706-44.772-45.69-49.885-105.829-147.005C221.27 79.235 121.927 49.293 108.163 28.917z" fill="url(#a)" transform="translate(0 454.26)"/>
      <path d="M110.427 28.917C80.063 62.292 60.193 90.718 7.487 108.296c-5.702 24.918 44.168 60.32 149.34 111.893 78.551 26.372 246.935 62.728 301.635 40.207-36.993-39.395-43.668-43.894-101.147-129.35-138.785-57.854-233.733-84.2-246.888-102.13z" fill="url(#b)" transform="translate(0 454.26)"/>
      <path d="M116.269 15.517c-27.577 30.696-45.622 56.838-93.49 73.004-5.179 22.918 40.113 55.476 135.63 102.907 71.34 24.254 224.265 57.69 273.944 36.978-33.598-36.23-39.66-40.368-91.862-118.962C214.447 56.237 128.216 32.007 116.27 15.517z" fill="url(#c)" transform="translate(0 454.26)"/>
      <path d="M131.116 0c-24.927 27.8-41.24 51.478-84.508 66.119-4.682 20.756 36.26 50.243 122.6 93.201 64.487 21.967 202.722 52.25 247.628 33.49-30.37-32.813-35.85-36.56-83.037-107.741C219.863 36.879 141.915 14.935 131.116 0z" fill="url(#d)" transform="translate(0 454.26)"/>
    </g>
    <g stroke="#979797">
      <path d="M92.59 45.962C30.488 75.851 0 162.552 0 219.742s25.861 136.39 77.51 199.29c21.455 37.077 69.508 54.79 164.804 95.813C247 398.951 184.833-10.088 92.59 45.962z" stroke-width="10" fill="url(#e)" transform="translate(0 38.032)"/>
      <path d="M460.495 94.39c-12-4.068-47.97 116.52-45.616 215.178 1.94 81.238 58.1 113.818 54.204 144.616-3.517 27.793-42.376 13.156-75.79-22.171-62.453-81.473-61.83-156.597-83.072-237.91 0-48.398 73.365-78.636 89.833-88.736 30.179-16.92 69.029-41.346 60.44-10.978z" stroke-width="10" fill="url(#f)" transform="translate(0 38.032)"/>
      <path d="M471.664 86.823c-20.43-28.688-103.04-72.804-202.827-84.997-100.294-8.378-172.453 17.39-203.44 51.063-10.72 21.26 8.414 33.934 30.987 33.934 56.874 4.173 56.874 4.173 74.976 43.386 8.486 60.629-6.934 60.629 0 119.027 0 118.837-8.988 165.072 43.904 250.743 48.655 24.334 55.938 39.107 149.291 62.183 45.34 0 49.236 0 82.95-23.076 20.804-27.76 26.98-55.976 24.16-82.66-37.343 3.594-61.714-5.36-83.691-51.238-38.7-108.089-23.419-49.642-60.99-207.258 14.726 13.018 216.89-22.62 144.68-111.107z" stroke-width="6" fill="url(#g)" transform="translate(0 38.032)"/>
    </g>
    <path d="M468.467 33.538c51.032 108.37 35.293 93.735 111.636 243.902 0 12.476-83.726 29.336-170.362 36.086-118.508 9.233-176.386 9.233-242.3-6.88-25.893-6.853-30.294-11.988-35.14-31.965 0-16.776 2.78-28.718 23.207-42.544 31.482-13.602 193.309-56.3 312.959-198.599zM441.74 238.64a6.39 6.39 0 1 0 0-12.779 6.39 6.39 0 0 0 0 12.78zm12.17-15.213a6.39 6.39 0 1 0 0-12.779 6.39 6.39 0 0 0 0 12.78zm-30.426 15.213a6.39 6.39 0 1 0 0-12.779 6.39 6.39 0 0 0 0 12.78zm-15.213-33.773a6.39 6.39 0 1 0 0-12.779 6.39 6.39 0 0 0 0 12.78zm21.298 9.432a6.39 6.39 0 1 0 0-12.779 6.39 6.39 0 0 0 0 12.78zm-12.17-27.383a6.39 6.39 0 1 0 0-12.779 6.39 6.39 0 0 0 0 12.779zm-12.17 37.728a6.39 6.39 0 1 0 0-12.779 6.39 6.39 0 0 0 0 12.78zm34.38-31.643a6.39 6.39 0 1 0 0-12.779 6.39 6.39 0 0 0 0 12.78zm17.343 9.128a6.39 6.39 0 1 0 0-12.779 6.39 6.39 0 0 0 0 12.779z" fill="url(#h)" transform="rotate(-9 356.202 176.653)"/>
    <circle fill="url(#i)" cx="204.462" cy="289.655" r="11.258"/>
  </g>
</svg>
